<mxfile host="Electron" modified="2023-06-15T09:23:46.023Z" agent="Mozilla/5.0 (Windows NT 10.0; Win64; x64) AppleWebKit/537.36 (KHTML, like Gecko) draw.io/21.2.8 Chrome/112.0.5615.165 Electron/24.2.0 Safari/537.36" etag="_-cpFrdnDXu-n-B_7CMm" version="21.2.8" type="device">
  <diagram name="페이지-1" id="kKOFvNmuKiCLTP5SnCTo">
    <mxGraphModel dx="1658" dy="828" grid="1" gridSize="10" guides="1" tooltips="1" connect="1" arrows="1" fold="1" page="1" pageScale="1" pageWidth="827" pageHeight="1169" math="0" shadow="0">
      <root>
        <mxCell id="0" />
        <mxCell id="1" parent="0" />
        <mxCell id="Xd0Dybj2CjGJxFuojRp_-1" value="enum type" style="rounded=1;whiteSpace=wrap;html=1;" vertex="1" parent="1">
          <mxGeometry x="40" y="40" width="120" height="40" as="geometry" />
        </mxCell>
        <mxCell id="Xd0Dybj2CjGJxFuojRp_-2" value="Property ( 속성 )" style="rounded=1;whiteSpace=wrap;html=1;" vertex="1" parent="1">
          <mxGeometry x="440" y="40" width="160" height="40" as="geometry" />
        </mxCell>
        <mxCell id="Xd0Dybj2CjGJxFuojRp_-3" value="상수를 하나의카테고리로 묶어서&lt;br&gt;관리하기 위한 사용자 정의 데이터 타입이다." style="rounded=1;whiteSpace=wrap;html=1;" vertex="1" parent="1">
          <mxGeometry x="40" y="120" width="310" height="60" as="geometry" />
        </mxCell>
      </root>
    </mxGraphModel>
  </diagram>
</mxfile>
